<svg xmlns="http://www.w3.org/2000/svg" xmlns:xlink="http://www.w3.org/1999/xlink" viewBox="0,0,256,256" width="30px" height="30px" fill-rule="nonzero"><g fill="#fff8f7" fill-rule="nonzero" stroke="none" stroke-width="1" stroke-linecap="butt" stroke-linejoin="miter" stroke-miterlimit="10" stroke-dasharray="" stroke-dashoffset="0" font-family="none" font-weight="none" font-size="none" text-anchor="none" style="mix-blend-mode: normal"><g transform="scale(8.53333,8.53333)"><path d="M15,3c-6.61547,0 -12,5.38453 -12,12c0,6.61547 5.38453,12 12,12c6.61547,0 12,-5.38453 12,-12c0,-4.13972 -2.10208,-7.79985 -5.30078,-9.95703l1.14648,-1.4707l-4.8457,-0.17578l1.39844,4.60352l1.0625,-1.36523c2.467,1.61275 4.1789,4.27557 4.48437,7.36914c-0.52693,0.0345 -0.93622,0.47275 -0.93467,1.0008c0.00155,0.52805 0.41341,0.96389 0.94053,0.99529c-0.46771,4.73349 -4.21937,8.48435 -8.95312,8.95117c-0.02603,-0.53237 -0.46504,-0.95077 -0.99805,-0.95117c-0.53301,0.00041 -0.97202,0.4188 -0.99805,0.95117c-4.7344,-0.46689 -8.48624,-4.21873 -8.95312,-8.95312c0.53461,-0.02311 0.95628,-0.46298 0.9568,-0.99809c0.00052,-0.53511 -0.42029,-0.9758 -0.95485,-0.99996c0.47289,-4.70518 4.24931,-8.32158 8.9668,-8.80273c0.09706,0.50856 0.5662,0.85897 1.0814,0.8077c0.51519,-0.05127 0.90609,-0.48725 0.90102,-1.00497v-1c-0.00006,-0.55226 -0.44774,-0.99994 -1,-1zM11.76367,11.74414c-1.472,0 -2.45703,0.85128 -2.45703,2.11328v0.02539h1.47656v-0.0293c0,-0.523 0.37688,-0.89258 0.92188,-0.89258c0.523,0 0.86719,0.31134 0.86719,0.77734c0,0.373 -0.23792,0.69564 -1.16992,1.55664l-2.00391,1.88477v1.07812h4.82227v-1.25781h-2.67187v-0.08203l1.04492,-0.96484c1.125,-1.002 1.53906,-1.62513 1.53906,-2.32812c0,-1.12 -0.95014,-1.88086 -2.36914,-1.88086zM17.66406,11.91406c-1.094,1.661 -1.82244,2.86084 -2.39844,3.96484v1.34961h3.11133v1.02734h1.52539v-1.02734h0.79102v-1.25781h-0.79102v-4.05664zM18.33789,13.06641h0.08008v2.96094h-1.75977v-0.07812c0.712,-1.328 1.13869,-2.04881 1.67969,-2.88281z"></path></g></g></svg>