<svg width="80" height="80" viewBox="0 0 80 80" fill="none" xmlns="http://www.w3.org/2000/svg">
<rect width="80" height="80" rx="10" fill="#52C747" fill-opacity="0.2"/>
<path d="M20.02 51.5149V41.7463L40.0151 27.6901L59.98 40.4428V51.5149L40 59.9346L20.02 51.5149Z" fill="#BCFEB6"/>
<path d="M40.0291 28.3403L59.44 40.7387V51.1564L40 59.3482L20.56 51.1564V42.0271L40.0291 28.3403ZM40 27.04L19.48 41.4655V51.8724L40 60.52L60.52 51.8724V40.1469L40 27.04Z" fill="#52C747"/>
<path d="M40 42.6557L20.02 50.9177V28.485L40 20.0654L59.98 28.485V50.9177L40 42.6557Z" fill="#E2FEDF"/>
<path d="M59.44 28.8403L40 20.6507V42.7551L59.44 50.8V28.8403Z" fill="white"/>
<path d="M44.86 44.1817V27.8532L54.58 31.9421V48.2047L44.86 44.1817Z" fill="#A0FD98"/>
<path d="M45.4 28.6665L54.04 32.3017V47.3969L45.4 43.821V28.6665ZM44.32 27.04V44.5425L55.12 49.0126V31.5835L44.32 27.04Z" fill="#52C747"/>
<path d="M26.5 32.5696L35.14 28.7269V37.8648L26.5 41.6275V32.5696Z" fill="#A0FD98"/>
<path d="M34.6 29.5574V37.5106L27.04 40.8035V32.9195L34.6 29.5574ZM35.68 27.8953L25.96 32.2186V42.4526L35.68 38.219V27.8953ZM52.42 38.92C52.1217 38.92 51.88 39.1617 51.88 39.46C51.88 39.7582 52.1217 40 52.42 40C52.7182 40 52.96 39.7582 52.96 39.46C52.96 39.1617 52.7182 38.92 52.42 38.92Z" fill="#52C747"/>
<path d="M40 19.48L19.48 28.1275V51.7255L20.56 51.2795V50.1099V40V28.8436L40 20.6518L59.44 28.8436V40V50.1099V51.2795L60.52 51.7255V28.1275L40 19.48Z" fill="#52C747"/>
</svg>
