<svg xmlns="http://www.w3.org/2000/svg" xmlns:xlink="http://www.w3.org/1999/xlink" viewBox="0,0,256,256" width="144px" height="144px" fill-rule="nonzero"><g fill="#009bdb" fill-rule="nonzero" stroke="none" stroke-width="1" stroke-linecap="butt" stroke-linejoin="miter" stroke-miterlimit="10" stroke-dasharray="" stroke-dashoffset="0" font-family="none" font-weight="none" font-size="none" text-anchor="none" style="mix-blend-mode: normal"><g transform="scale(8,8)"><path d="M12.0332,4.98633c-0.07805,-0.00193 -0.15605,0.00528 -0.23242,0.02148c-5.27969,0.0809 -8.50781,3.28516 -8.50781,3.28516c-0.07605,0.07595 -0.13936,0.16366 -0.1875,0.25977c0,0 -2.10547,4.15097 -2.10547,8.94727c0,4.7963 2.10547,8.94727 2.10547,8.94727c0.16944,0.33878 0.51574,0.55276 0.89453,0.55273c0,0 3.92487,-0.09447 7.96289,-2.82617c3.24379,2.69308 7.55579,2.81249 7.91016,2.81836c0.03694,0.00467 0.0741,0.00728 0.11133,0.00781c0.00521,0.00004 0.01042,0.00004 0.01563,0c0,0 0.00969,0 0.00977,0c0.03263,-0.00036 0.06522,-0.00231 0.09766,-0.00586c0.15356,-0.00095 1.55132,-0.01416 3.29883,-0.39258c1.84552,-0.39966 4.08246,-1.1698 5.40625,-3.01953c0.03085,-0.04269 0.05828,-0.08775 0.08203,-0.13477c0,0 2.10547,-4.15097 2.10547,-8.94727c0,-4.7963 -2.10547,-8.94727 -2.10547,-8.94727c-0.16944,-0.33878 -0.51574,-0.55276 -0.89453,-0.55273c-3.91769,0 -7.05397,2.15745 -7.92383,2.78516c-0.31495,-0.35442 -0.42373,-0.60932 -1.3125,-1.14258c-1.37048,-0.82229 -3.50724,-1.60257 -6.5625,-1.63672c-0.05534,-0.01124 -0.11153,-0.01777 -0.16797,-0.01953zM12.79883,7.02539c2.37513,0.11737 3.94685,0.73764 4.9375,1.33203c0.93183,0.5591 1.24561,0.95939 1.33984,1.08984c0.12557,0.52833 0.92383,4.03036 0.92383,8.05273c0,3.18093 -0.51389,6.08814 -0.79297,7.44141c-1.40023,-0.14777 -4.34612,-0.67156 -6.30078,-2.46875c-0.16354,-0.70118 -0.90625,-4.07868 -0.90625,-7.97266c0,-3.20077 0.52104,-6.13291 0.79883,-7.47461zM10.75781,7.07031c-0.30492,1.54927 -0.75781,4.30731 -0.75781,7.42969c0,3.53361 0.58973,6.72075 0.875,8.05859c-2.98448,2.05865 -5.45823,2.30067 -6.23242,2.34375c-0.3784,-0.83312 -1.64258,-3.7569 -1.64258,-7.40234c0,-4.05274 1.69971,-7.61478 1.82617,-7.87695c0.14539,-0.14227 2.247,-2.16014 5.93164,-2.55273zM27.36133,7.10547c0.38166,0.84123 1.63867,3.75605 1.63867,7.39453c0,4.11661 -1.78019,7.79645 -1.85547,7.95117c-0.8353,1.1268 -2.56353,1.85108 -4.16211,2.19727c-0.65575,0.14201 -1.23972,0.21712 -1.73828,0.26758c0.30495,-1.55214 0.75586,-4.30186 0.75586,-7.41602c0,-3.50194 -0.58295,-6.68002 -0.87109,-8.03906c1.05894,-0.65836 3.65829,-2.12305 6.23242,-2.35547z"></path></g></g></svg>