<svg width="24" height="24" viewBox="0 0 24 24" fill="none" xmlns="http://www.w3.org/2000/svg">
<g id="icons8-building 2">
<path id="Vector" d="M20 22.5H4V2.92C4 2.1145 4.648 1.5 5.4445 1.5H18.556C19.352 1.5 20 2.1145 20 2.92V22.5Z" fill="#90CAF9"/>
<path id="Vector_2" d="M20 21.5H4V22.5H20V21.5Z" fill="#64B5F6"/>
<g id="Group">
<path id="Vector_3" d="M10.5 3.5H7V6.5H10.5V3.5Z" fill="#1565C0"/>
<path id="Vector_4" d="M17 3.5H13.5V6.5H17V3.5Z" fill="#1565C0"/>
<path id="Vector_5" d="M10.5 8H7V11H10.5V8Z" fill="#1565C0"/>
<path id="Vector_6" d="M17 8H13.5V11H17V8Z" fill="#1565C0"/>
<path id="Vector_7" d="M10.5 12.5H7V15.5H10.5V12.5Z" fill="#1565C0"/>
<path id="Vector_8" d="M17 12.5H13.5V15.5H17V12.5Z" fill="#1565C0"/>
<path id="Vector_9" d="M10.5 17H7V20H10.5V17Z" fill="#1565C0"/>
<path id="Vector_10" d="M17 17H13.5V22.5H17V17Z" fill="#1565C0"/>
</g>
</g>
</svg>
