<svg width="24" height="24" viewBox="0 0 24 24" fill="none" xmlns="http://www.w3.org/2000/svg">
<g id="icons8-floor-plan">
<g id="Group">
<g id="Group_2">
<g id="Group_3">
<path id="Vector" d="M18.3 20.1H5.70002C4.71002 20.1 3.90002 19.29 3.90002 18.3V5.70002C3.90002 4.71002 4.71002 3.90002 5.70002 3.90002H10.56L13.8 7.14003L12.54 8.40003L9.84003 5.70002H5.70002V18.3H18.3V5.70002H14.7V3.90002H18.3C19.29 3.90002 20.1 4.71002 20.1 5.70002V18.3C20.1 19.29 19.29 20.1 18.3 20.1Z" fill="#FFC923"/>
<path id="Vector_2" d="M8.40002 11.1H13.8V12.9H8.40002V11.1Z" fill="#FFC923"/>
<path id="Vector_3" d="M10.2001 12H12.0001V19.2H10.2001V12ZM16.5001 11.1H19.2001V12.9H16.5001V11.1Z" fill="#FFC923"/>
<path id="Vector_4" opacity="0.3" d="M4.80005 5.70001H19.2001V19.2H4.80005V5.70001Z" fill="#FFC923"/>
</g>
</g>
</g>
</g>
</svg>
