<svg width="80" height="80" viewBox="0 0 80 80" fill="none" xmlns="http://www.w3.org/2000/svg">
<rect width="80" height="80" rx="10" fill="#D87CEE" fill-opacity="0.2"/>
<path d="M30.073 32.827H49.873V51.727H30.073V32.827Z" fill="#510065"/>
<path d="M27.4 35.5001H30.1V49.9001H27.4V35.5001ZM37.3 35.5001L34.6 35.5073L34.6126 49.9073L37.3 49.9037V35.5001ZM45.4 35.5001L42.7 35.4965L42.7126 49.8965L45.4 49.9001V35.5001ZM49.9 35.5001H52.6V49.9001H49.9V35.5001Z" fill="#D87CEE"/>
<path d="M54.4 33.6857C54.4 34.1807 53.9995 34.5992 53.5 34.6001H26.5036C26.0068 34.601 25.6036 34.2167 25.6027 33.7208L25.6 31.0307C25.5991 30.5348 26.0014 30.1334 26.4982 30.1334L53.4964 30.1001C53.9941 30.0992 54.3946 30.5006 54.3964 30.9956L54.4 33.6857Z" fill="#7D1098"/>
<path d="M56.2 56.2H23.8198L23.8 53.5H56.2V56.2ZM30.9937 34.6108L30.9946 35.5108C30.9955 36.0085 30.5932 36.3991 30.0955 36.4H27.3955C26.8987 36.4 26.5009 36.0139 26.5 35.5171V34.6171L30.9937 34.6108ZM38.1991 34.6L38.2 35.4946C38.2009 35.9923 37.7986 36.3991 37.3009 36.4H34.6009C34.1041 36.4 33.7009 35.9986 33.7 35.5009V34.6H38.1991ZM46.2928 34.6L46.2946 35.4919C46.2946 35.9896 45.8923 36.4 45.3955 36.4H42.6955C42.1987 36.4009 41.8 35.9959 41.8 35.4982V34.6H46.2928ZM53.5 34.6V35.4829C53.5 35.9806 53.0923 36.4 52.5955 36.4H49.8955C49.3987 36.4009 49 35.986 49 35.4883V34.6H53.5ZM31 50.8108V49.9108C30.9991 49.4131 30.6076 48.9991 30.1108 49H27.4108C26.914 49 26.4991 49.4194 26.5 49.9171V50.8171L31 50.8108ZM38.2 50.8V49.9018C38.1991 49.4041 37.8076 49.0027 37.3108 49.0036L34.6108 49.0072C34.114 49.0072 33.7108 49.4104 33.7117 49.9081L33.7135 50.8H38.2ZM46.3 50.8V49.8919C46.2991 49.3942 45.8959 49 45.3982 49H42.6982C42.2014 49.0009 41.7991 49.4005 41.8 49.8982L41.8009 50.8H46.3ZM53.5 50.8L53.4991 49.8829C53.4982 49.3861 53.095 49 52.5973 49H49.8973C49.4005 49.0009 48.9991 49.3915 49 49.8883V50.8H53.5ZM56.2 31L39.9802 23.8L23.8 31.0189V32.8H56.2V31Z" fill="#D87CEE"/>
<path d="M25.6153 50.8001H54.3982V53.5001H25.6153V50.8001ZM28.2892 31.0001H51.6892L39.982 25.6001L28.2892 31.0001Z" fill="#8B24A4"/>
</svg>
