<svg width="24" height="24" viewBox="0 0 24 24" fill="none" xmlns="http://www.w3.org/2000/svg">
<g id="icons8-down 1">
<g id="Group">
<g id="Group_2">
<g id="Group_3">
<path id="Vector" d="M3.90002 12C3.90002 12.4968 4.30322 12.9 4.80002 12.9H16.5633L13.0864 16.3769C12.7345 16.7288 12.7345 17.2986 13.0864 17.6496L13.1637 17.7269C13.5156 18.0788 14.0854 18.0788 14.4364 17.7269L19.527 12.6363C19.8789 12.2844 19.8789 11.7146 19.527 11.3636L14.4364 6.27301C14.0845 5.92111 13.5147 5.92111 13.1637 6.27301L13.0864 6.35036C12.7345 6.70226 12.7345 7.27201 13.0864 7.62301L16.5633 11.1H4.80002C4.30322 11.1 3.90002 11.5032 3.90002 12Z" fill="white"/>
</g>
</g>
</g>
</g>
</svg>
