<svg xmlns="http://www.w3.org/2000/svg" xmlns:xlink="http://www.w3.org/1999/xlink" viewBox="0,0,256,256" width="50px" height="50px" fill-rule="nonzero"><g transform="translate(12.8,12.8) scale(0.9,0.9)"><g fill="#ffffff" fill-rule="nonzero" stroke="none" stroke-width="1" stroke-linecap="butt" stroke-linejoin="miter" stroke-miterlimit="10" stroke-dasharray="" stroke-dashoffset="0" font-family="none" font-weight="none" font-size="none" text-anchor="none" style="mix-blend-mode: normal"><g transform="scale(5.12,5.12)"><path d="M2,2v43h14.71875l-4.25,-4.25l0.8125,-0.8125c-0.15625,-0.08594 -0.28125,-0.24609 -0.28125,-0.4375c0,-0.27734 0.22266,-0.5 0.5,-0.5c0.19141,0 0.35156,0.125 0.4375,0.28125l1.34375,-1.34375c-0.15625,-0.08594 -0.28125,-0.24609 -0.28125,-0.4375c0,-0.27734 0.22266,-0.5 0.5,-0.5c0.19141,0 0.35156,0.125 0.4375,0.28125l1.34375,-1.34375c-0.15625,-0.08594 -0.28125,-0.24609 -0.28125,-0.4375c0,-0.27734 0.22266,-0.5 0.5,-0.5c0.19141,0 0.35156,0.125 0.4375,0.28125l1.34375,-1.34375c-0.15625,-0.08594 -0.28125,-0.24609 -0.28125,-0.4375c0,-0.27734 0.22266,-0.5 0.5,-0.5c0.19141,0 0.35156,0.125 0.4375,0.28125l0.65625,-0.6875l0.6875,-0.65625c-0.15625,-0.08594 -0.28125,-0.24609 -0.28125,-0.4375c0,-0.27734 0.22266,-0.5 0.5,-0.5c0.19141,0 0.35156,0.125 0.4375,0.28125l1.34375,-1.34375c-0.15625,-0.08594 -0.28125,-0.24609 -0.28125,-0.4375c0,-0.27734 0.22266,-0.5 0.5,-0.5c0.19141,0 0.35156,0.125 0.4375,0.28125l1.34375,-1.34375c-0.15625,-0.08594 -0.28125,-0.24609 -0.28125,-0.4375c0,-0.27734 0.22266,-0.5 0.5,-0.5c0.19141,0 0.35156,0.125 0.4375,0.28125l1.34375,-1.34375c-0.15625,-0.08594 -0.28125,-0.24609 -0.28125,-0.4375c0,-0.27734 0.22266,-0.5 0.5,-0.5c0.19141,0 0.35156,0.125 0.4375,0.28125l1.34375,-1.34375c-0.15625,-0.08594 -0.28125,-0.24609 -0.28125,-0.4375c0,-0.27734 0.22266,-0.5 0.5,-0.5c0.19141,0 0.35156,0.125 0.4375,0.28125l1.34375,-1.34375c-0.15625,-0.08594 -0.28125,-0.24609 -0.28125,-0.4375c0,-0.27734 0.22266,-0.5 0.5,-0.5c0.19141,0 0.35156,0.125 0.4375,0.28125l0.125,-0.15625l1.21875,-1.1875c-0.15625,-0.08594 -0.28125,-0.24609 -0.28125,-0.4375c0,-0.27734 0.22266,-0.5 0.5,-0.5c0.19141,0 0.35156,0.125 0.4375,0.28125l1.34375,-1.34375c-0.15625,-0.08594 -0.28125,-0.24609 -0.28125,-0.4375c0,-0.27734 0.22266,-0.5 0.5,-0.5c0.19141,0 0.35156,0.125 0.4375,0.28125l0.375,-0.375l2.6875,-2.71875v-12.1875zM7.5,5c0.27734,0 0.5,0.22266 0.5,0.5c0,0.27734 -0.22266,0.5 -0.5,0.5c-0.27734,0 -0.5,-0.22266 -0.5,-0.5c0,-0.27734 0.22266,-0.5 0.5,-0.5zM11.5,5c0.27734,0 0.5,0.22266 0.5,0.5c0,0.27734 -0.22266,0.5 -0.5,0.5c-0.27734,0 -0.5,-0.22266 -0.5,-0.5c0,-0.27734 0.22266,-0.5 0.5,-0.5zM15.5,5c0.27734,0 0.5,0.22266 0.5,0.5c0,0.27734 -0.22266,0.5 -0.5,0.5c-0.27734,0 -0.5,-0.22266 -0.5,-0.5c0,-0.27734 0.22266,-0.5 0.5,-0.5zM19.5,5c0.27734,0 0.5,0.22266 0.5,0.5c0,0.27734 -0.22266,0.5 -0.5,0.5c-0.27734,0 -0.5,-0.22266 -0.5,-0.5c0,-0.27734 0.22266,-0.5 0.5,-0.5zM23.5,5c0.27734,0 0.5,0.22266 0.5,0.5c0,0.27734 -0.22266,0.5 -0.5,0.5c-0.27734,0 -0.5,-0.22266 -0.5,-0.5c0,-0.27734 0.22266,-0.5 0.5,-0.5zM27.5,5c0.27734,0 0.5,0.22266 0.5,0.5c0,0.27734 -0.22266,0.5 -0.5,0.5c-0.27734,0 -0.5,-0.22266 -0.5,-0.5c0,-0.27734 0.22266,-0.5 0.5,-0.5zM31.5,5c0.27734,0 0.5,0.22266 0.5,0.5c0,0.27734 -0.22266,0.5 -0.5,0.5c-0.27734,0 -0.5,-0.22266 -0.5,-0.5c0,-0.27734 0.22266,-0.5 0.5,-0.5zM35.5,5c0.27734,0 0.5,0.22266 0.5,0.5c0,0.27734 -0.22266,0.5 -0.5,0.5c-0.27734,0 -0.5,-0.22266 -0.5,-0.5c0,-0.27734 0.22266,-0.5 0.5,-0.5zM5.5,7c0.27734,0 0.5,0.22266 0.5,0.5c0,0.27734 -0.22266,0.5 -0.5,0.5c-0.27734,0 -0.5,-0.22266 -0.5,-0.5c0,-0.27734 0.22266,-0.5 0.5,-0.5zM7.5,7c0.27734,0 0.5,0.22266 0.5,0.5c0,0.27734 -0.22266,0.5 -0.5,0.5c-0.27734,0 -0.5,-0.22266 -0.5,-0.5c0,-0.27734 0.22266,-0.5 0.5,-0.5zM9.5,7c0.27734,0 0.5,0.22266 0.5,0.5c0,0.27734 -0.22266,0.5 -0.5,0.5c-0.27734,0 -0.5,-0.22266 -0.5,-0.5c0,-0.27734 0.22266,-0.5 0.5,-0.5zM11.5,7c0.27734,0 0.5,0.22266 0.5,0.5c0,0.27734 -0.22266,0.5 -0.5,0.5c-0.27734,0 -0.5,-0.22266 -0.5,-0.5c0,-0.27734 0.22266,-0.5 0.5,-0.5zM13.5,7c0.27734,0 0.5,0.22266 0.5,0.5c0,0.27734 -0.22266,0.5 -0.5,0.5c-0.27734,0 -0.5,-0.22266 -0.5,-0.5c0,-0.27734 0.22266,-0.5 0.5,-0.5zM15.5,7c0.27734,0 0.5,0.22266 0.5,0.5c0,0.27734 -0.22266,0.5 -0.5,0.5c-0.27734,0 -0.5,-0.22266 -0.5,-0.5c0,-0.27734 0.22266,-0.5 0.5,-0.5zM17.5,7c0.27734,0 0.5,0.22266 0.5,0.5c0,0.27734 -0.22266,0.5 -0.5,0.5c-0.27734,0 -0.5,-0.22266 -0.5,-0.5c0,-0.27734 0.22266,-0.5 0.5,-0.5zM19.5,7c0.27734,0 0.5,0.22266 0.5,0.5c0,0.27734 -0.22266,0.5 -0.5,0.5c-0.27734,0 -0.5,-0.22266 -0.5,-0.5c0,-0.27734 0.22266,-0.5 0.5,-0.5zM21.5,7c0.27734,0 0.5,0.22266 0.5,0.5c0,0.27734 -0.22266,0.5 -0.5,0.5c-0.27734,0 -0.5,-0.22266 -0.5,-0.5c0,-0.27734 0.22266,-0.5 0.5,-0.5zM23.5,7c0.27734,0 0.5,0.22266 0.5,0.5c0,0.27734 -0.22266,0.5 -0.5,0.5c-0.27734,0 -0.5,-0.22266 -0.5,-0.5c0,-0.27734 0.22266,-0.5 0.5,-0.5zM25.5,7c0.27734,0 0.5,0.22266 0.5,0.5c0,0.27734 -0.22266,0.5 -0.5,0.5c-0.27734,0 -0.5,-0.22266 -0.5,-0.5c0,-0.27734 0.22266,-0.5 0.5,-0.5zM27.5,7c0.27734,0 0.5,0.22266 0.5,0.5c0,0.27734 -0.22266,0.5 -0.5,0.5c-0.27734,0 -0.5,-0.22266 -0.5,-0.5c0,-0.27734 0.22266,-0.5 0.5,-0.5zM29.5,7c0.27734,0 0.5,0.22266 0.5,0.5c0,0.27734 -0.22266,0.5 -0.5,0.5c-0.27734,0 -0.5,-0.22266 -0.5,-0.5c0,-0.27734 0.22266,-0.5 0.5,-0.5zM31.5,7c0.27734,0 0.5,0.22266 0.5,0.5c0,0.27734 -0.22266,0.5 -0.5,0.5c-0.27734,0 -0.5,-0.22266 -0.5,-0.5c0,-0.27734 0.22266,-0.5 0.5,-0.5zM33.5,7c0.27734,0 0.5,0.22266 0.5,0.5c0,0.27734 -0.22266,0.5 -0.5,0.5c-0.27734,0 -0.5,-0.22266 -0.5,-0.5c0,-0.27734 0.22266,-0.5 0.5,-0.5zM35.5,7c0.27734,0 0.5,0.22266 0.5,0.5c0,0.27734 -0.22266,0.5 -0.5,0.5c-0.27734,0 -0.5,-0.22266 -0.5,-0.5c0,-0.27734 0.22266,-0.5 0.5,-0.5zM7.5,9c0.27734,0 0.5,0.22266 0.5,0.5c0,0.27734 -0.22266,0.5 -0.5,0.5c-0.27734,0 -0.5,-0.22266 -0.5,-0.5c0,-0.27734 0.22266,-0.5 0.5,-0.5zM11.5,9c0.27734,0 0.5,0.22266 0.5,0.5c0,0.27734 -0.22266,0.5 -0.5,0.5c-0.27734,0 -0.5,-0.22266 -0.5,-0.5c0,-0.27734 0.22266,-0.5 0.5,-0.5zM15.5,9c0.27734,0 0.5,0.22266 0.5,0.5c0,0.27734 -0.22266,0.5 -0.5,0.5c-0.27734,0 -0.5,-0.22266 -0.5,-0.5c0,-0.27734 0.22266,-0.5 0.5,-0.5zM19.5,9c0.27734,0 0.5,0.22266 0.5,0.5c0,0.27734 -0.22266,0.5 -0.5,0.5c-0.27734,0 -0.5,-0.22266 -0.5,-0.5c0,-0.27734 0.22266,-0.5 0.5,-0.5zM23.5,9c0.27734,0 0.5,0.22266 0.5,0.5c0,0.27734 -0.22266,0.5 -0.5,0.5c-0.27734,0 -0.5,-0.22266 -0.5,-0.5c0,-0.27734 0.22266,-0.5 0.5,-0.5zM27.5,9c0.27734,0 0.5,0.22266 0.5,0.5c0,0.27734 -0.22266,0.5 -0.5,0.5c-0.27734,0 -0.5,-0.22266 -0.5,-0.5c0,-0.27734 0.22266,-0.5 0.5,-0.5zM31.5,9c0.27734,0 0.5,0.22266 0.5,0.5c0,0.27734 -0.22266,0.5 -0.5,0.5c-0.27734,0 -0.5,-0.22266 -0.5,-0.5c0,-0.27734 0.22266,-0.5 0.5,-0.5zM35.5,9c0.27734,0 0.5,0.22266 0.5,0.5c0,0.27734 -0.22266,0.5 -0.5,0.5c-0.27734,0 -0.5,-0.22266 -0.5,-0.5c0,-0.27734 0.22266,-0.5 0.5,-0.5zM5.5,11c0.27734,0 0.5,0.22266 0.5,0.5c0,0.27734 -0.22266,0.5 -0.5,0.5c-0.27734,0 -0.5,-0.22266 -0.5,-0.5c0,-0.27734 0.22266,-0.5 0.5,-0.5zM7.5,11c0.27734,0 0.5,0.22266 0.5,0.5c0,0.27734 -0.22266,0.5 -0.5,0.5c-0.27734,0 -0.5,-0.22266 -0.5,-0.5c0,-0.27734 0.22266,-0.5 0.5,-0.5zM9.5,11c0.27734,0 0.5,0.22266 0.5,0.5c0,0.27734 -0.22266,0.5 -0.5,0.5c-0.27734,0 -0.5,-0.22266 -0.5,-0.5c0,-0.27734 0.22266,-0.5 0.5,-0.5zM11.5,11c0.27734,0 0.5,0.22266 0.5,0.5c0,0.27734 -0.22266,0.5 -0.5,0.5c-0.27734,0 -0.5,-0.22266 -0.5,-0.5c0,-0.27734 0.22266,-0.5 0.5,-0.5zM13.5,11c0.27734,0 0.5,0.22266 0.5,0.5c0,0.27734 -0.22266,0.5 -0.5,0.5c-0.27734,0 -0.5,-0.22266 -0.5,-0.5c0,-0.27734 0.22266,-0.5 0.5,-0.5zM15.5,11c0.27734,0 0.5,0.22266 0.5,0.5c0,0.27734 -0.22266,0.5 -0.5,0.5c-0.27734,0 -0.5,-0.22266 -0.5,-0.5c0,-0.27734 0.22266,-0.5 0.5,-0.5zM17.5,11c0.27734,0 0.5,0.22266 0.5,0.5c0,0.27734 -0.22266,0.5 -0.5,0.5c-0.27734,0 -0.5,-0.22266 -0.5,-0.5c0,-0.27734 0.22266,-0.5 0.5,-0.5zM19.5,11c0.27734,0 0.5,0.22266 0.5,0.5c0,0.27734 -0.22266,0.5 -0.5,0.5c-0.27734,0 -0.5,-0.22266 -0.5,-0.5c0,-0.27734 0.22266,-0.5 0.5,-0.5zM21.5,11c0.27734,0 0.5,0.22266 0.5,0.5c0,0.27734 -0.22266,0.5 -0.5,0.5c-0.27734,0 -0.5,-0.22266 -0.5,-0.5c0,-0.27734 0.22266,-0.5 0.5,-0.5zM23.5,11c0.27734,0 0.5,0.22266 0.5,0.5c0,0.27734 -0.22266,0.5 -0.5,0.5c-0.27734,0 -0.5,-0.22266 -0.5,-0.5c0,-0.27734 0.22266,-0.5 0.5,-0.5zM25.5,11c0.27734,0 0.5,0.22266 0.5,0.5c0,0.27734 -0.22266,0.5 -0.5,0.5c-0.27734,0 -0.5,-0.22266 -0.5,-0.5c0,-0.27734 0.22266,-0.5 0.5,-0.5zM27.5,11c0.27734,0 0.5,0.22266 0.5,0.5c0,0.27734 -0.22266,0.5 -0.5,0.5c-0.27734,0 -0.5,-0.22266 -0.5,-0.5c0,-0.27734 0.22266,-0.5 0.5,-0.5zM29.5,11c0.27734,0 0.5,0.22266 0.5,0.5c0,0.27734 -0.22266,0.5 -0.5,0.5c-0.27734,0 -0.5,-0.22266 -0.5,-0.5c0,-0.27734 0.22266,-0.5 0.5,-0.5zM31.5,11c0.27734,0 0.5,0.22266 0.5,0.5c0,0.27734 -0.22266,0.5 -0.5,0.5c-0.27734,0 -0.5,-0.22266 -0.5,-0.5c0,-0.27734 0.22266,-0.5 0.5,-0.5zM33.5,11c0.27734,0 0.5,0.22266 0.5,0.5c0,0.27734 -0.22266,0.5 -0.5,0.5c-0.27734,0 -0.5,-0.22266 -0.5,-0.5c0,-0.27734 0.22266,-0.5 0.5,-0.5zM35.5,11c0.27734,0 0.5,0.22266 0.5,0.5c0,0.27734 -0.22266,0.5 -0.5,0.5c-0.27734,0 -0.5,-0.22266 -0.5,-0.5c0,-0.27734 0.22266,-0.5 0.5,-0.5zM7.5,13c0.27734,0 0.5,0.22266 0.5,0.5c0,0.27734 -0.22266,0.5 -0.5,0.5c-0.27734,0 -0.5,-0.22266 -0.5,-0.5c0,-0.27734 0.22266,-0.5 0.5,-0.5zM11.5,13c0.27734,0 0.5,0.22266 0.5,0.5c0,0.27734 -0.22266,0.5 -0.5,0.5c-0.27734,0 -0.5,-0.22266 -0.5,-0.5c0,-0.27734 0.22266,-0.5 0.5,-0.5zM15.5,13c0.27734,0 0.5,0.22266 0.5,0.5c0,0.27734 -0.22266,0.5 -0.5,0.5c-0.27734,0 -0.5,-0.22266 -0.5,-0.5c0,-0.27734 0.22266,-0.5 0.5,-0.5zM19.5,13c0.27734,0 0.5,0.22266 0.5,0.5c0,0.27734 -0.22266,0.5 -0.5,0.5c-0.27734,0 -0.5,-0.22266 -0.5,-0.5c0,-0.27734 0.22266,-0.5 0.5,-0.5zM23.5,13c0.27734,0 0.5,0.22266 0.5,0.5c0,0.27734 -0.22266,0.5 -0.5,0.5c-0.27734,0 -0.5,-0.22266 -0.5,-0.5c0,-0.27734 0.22266,-0.5 0.5,-0.5zM27.5,13c0.27734,0 0.5,0.22266 0.5,0.5c0,0.27734 -0.22266,0.5 -0.5,0.5c-0.27734,0 -0.5,-0.22266 -0.5,-0.5c0,-0.27734 0.22266,-0.5 0.5,-0.5zM31.5,13c0.27734,0 0.5,0.22266 0.5,0.5c0,0.27734 -0.22266,0.5 -0.5,0.5c-0.27734,0 -0.5,-0.22266 -0.5,-0.5c0,-0.27734 0.22266,-0.5 0.5,-0.5zM35.5,13c0.27734,0 0.5,0.22266 0.5,0.5c0,0.27734 -0.22266,0.5 -0.5,0.5c-0.27734,0 -0.5,-0.22266 -0.5,-0.5c0,-0.27734 0.22266,-0.5 0.5,-0.5zM5.5,15c0.27734,0 0.5,0.22266 0.5,0.5c0,0.27734 -0.22266,0.5 -0.5,0.5c-0.27734,0 -0.5,-0.22266 -0.5,-0.5c0,-0.27734 0.22266,-0.5 0.5,-0.5zM7.5,15c0.27734,0 0.5,0.22266 0.5,0.5c0,0.27734 -0.22266,0.5 -0.5,0.5c-0.27734,0 -0.5,-0.22266 -0.5,-0.5c0,-0.27734 0.22266,-0.5 0.5,-0.5zM9.5,15c0.27734,0 0.5,0.22266 0.5,0.5c0,0.27734 -0.22266,0.5 -0.5,0.5c-0.27734,0 -0.5,-0.22266 -0.5,-0.5c0,-0.27734 0.22266,-0.5 0.5,-0.5zM11.5,15c0.27734,0 0.5,0.22266 0.5,0.5c0,0.27734 -0.22266,0.5 -0.5,0.5c-0.27734,0 -0.5,-0.22266 -0.5,-0.5c0,-0.27734 0.22266,-0.5 0.5,-0.5zM13.5,15c0.27734,0 0.5,0.22266 0.5,0.5c0,0.27734 -0.22266,0.5 -0.5,0.5c-0.27734,0 -0.5,-0.22266 -0.5,-0.5c0,-0.27734 0.22266,-0.5 0.5,-0.5zM15.5,15c0.27734,0 0.5,0.22266 0.5,0.5c0,0.27734 -0.22266,0.5 -0.5,0.5c-0.27734,0 -0.5,-0.22266 -0.5,-0.5c0,-0.27734 0.22266,-0.5 0.5,-0.5zM17.5,15c0.27734,0 0.5,0.22266 0.5,0.5c0,0.27734 -0.22266,0.5 -0.5,0.5c-0.27734,0 -0.5,-0.22266 -0.5,-0.5c0,-0.27734 0.22266,-0.5 0.5,-0.5zM19.5,15c0.27734,0 0.5,0.22266 0.5,0.5c0,0.27734 -0.22266,0.5 -0.5,0.5c-0.27734,0 -0.5,-0.22266 -0.5,-0.5c0,-0.27734 0.22266,-0.5 0.5,-0.5zM21.5,15c0.27734,0 0.5,0.22266 0.5,0.5c0,0.27734 -0.22266,0.5 -0.5,0.5c-0.27734,0 -0.5,-0.22266 -0.5,-0.5c0,-0.27734 0.22266,-0.5 0.5,-0.5zM23.5,15c0.27734,0 0.5,0.22266 0.5,0.5c0,0.27734 -0.22266,0.5 -0.5,0.5c-0.27734,0 -0.5,-0.22266 -0.5,-0.5c0,-0.27734 0.22266,-0.5 0.5,-0.5zM25.5,15c0.27734,0 0.5,0.22266 0.5,0.5c0,0.27734 -0.22266,0.5 -0.5,0.5c-0.27734,0 -0.5,-0.22266 -0.5,-0.5c0,-0.27734 0.22266,-0.5 0.5,-0.5zM27.5,15c0.27734,0 0.5,0.22266 0.5,0.5c0,0.27734 -0.22266,0.5 -0.5,0.5c-0.27734,0 -0.5,-0.22266 -0.5,-0.5c0,-0.27734 0.22266,-0.5 0.5,-0.5zM29.5,15c0.27734,0 0.5,0.22266 0.5,0.5c0,0.27734 -0.22266,0.5 -0.5,0.5c-0.27734,0 -0.5,-0.22266 -0.5,-0.5c0,-0.27734 0.22266,-0.5 0.5,-0.5zM31.5,15c0.27734,0 0.5,0.22266 0.5,0.5c0,0.27734 -0.22266,0.5 -0.5,0.5c-0.27734,0 -0.5,-0.22266 -0.5,-0.5c0,-0.27734 0.22266,-0.5 0.5,-0.5zM33.5,15c0.27734,0 0.5,0.22266 0.5,0.5c0,0.27734 -0.22266,0.5 -0.5,0.5c-0.27734,0 -0.5,-0.22266 -0.5,-0.5c0,-0.27734 0.22266,-0.5 0.5,-0.5zM35.5,15c0.27734,0 0.5,0.22266 0.5,0.5c0,0.27734 -0.22266,0.5 -0.5,0.5c-0.27734,0 -0.5,-0.22266 -0.5,-0.5c0,-0.27734 0.22266,-0.5 0.5,-0.5zM40.75,15.28125l-3.03125,3.03125l2.375,2.34375c0.39063,0.39063 0.39063,1.04688 0,1.4375c-0.19531,0.19531 -0.46094,0.28125 -0.71875,0.28125c-0.25781,0 -0.52344,-0.08594 -0.71875,-0.28125l-2.34375,-2.375l-1.59375,1.59375l3.125,3.125c0.39063,0.39063 0.39063,1.01563 0,1.40625c-0.19531,0.19531 -0.46094,0.28125 -0.71875,0.28125c-0.25781,0 -0.49219,-0.08594 -0.6875,-0.28125l-3.125,-3.125l-1.59375,1.59375l2.375,2.34375c0.39063,0.39063 0.39063,1.04688 0,1.4375c-0.19531,0.19531 -0.46094,0.28125 -0.71875,0.28125c-0.25781,0 -0.52344,-0.08594 -0.71875,-0.28125l-2.34375,-2.375l-1.59375,1.59375l3.125,3.125c0.39063,0.39063 0.39063,1.01563 0,1.40625c-0.19531,0.19531 -0.46094,0.28125 -0.71875,0.28125c-0.25781,0 -0.49219,-0.08594 -0.6875,-0.28125l-3.125,-3.125l-1.59375,1.59375l2.375,2.34375c0.39063,0.39063 0.39063,1.04688 0,1.4375c-0.19531,0.19531 -0.46094,0.28125 -0.71875,0.28125c-0.25781,0 -0.52344,-0.08594 -0.71875,-0.28125l-2.34375,-2.375l-1.59375,1.59375l3.125,3.125c0.39063,0.39063 0.39063,1.01563 0,1.40625c-0.19531,0.19531 -0.46094,0.28125 -0.71875,0.28125c-0.25781,0 -0.49219,-0.08594 -0.6875,-0.28125l-3.125,-3.125l-1.59375,1.59375l2.375,2.34375c0.39063,0.39063 0.39063,1.04688 0,1.4375c-0.19531,0.19531 -0.46094,0.28125 -0.71875,0.28125c-0.25781,0 -0.52344,-0.08594 -0.71875,-0.28125l-2.34375,-2.375l-3.03125,3.03125l7.53125,7.5l25.4375,-25.4375zM7.5,17c0.27734,0 0.5,0.22266 0.5,0.5c0,0.27734 -0.22266,0.5 -0.5,0.5c-0.27734,0 -0.5,-0.22266 -0.5,-0.5c0,-0.27734 0.22266,-0.5 0.5,-0.5zM11.5,17c0.27734,0 0.5,0.22266 0.5,0.5c0,0.27734 -0.22266,0.5 -0.5,0.5c-0.27734,0 -0.5,-0.22266 -0.5,-0.5c0,-0.27734 0.22266,-0.5 0.5,-0.5zM15.5,17c0.27734,0 0.5,0.22266 0.5,0.5c0,0.27734 -0.22266,0.5 -0.5,0.5c-0.27734,0 -0.5,-0.22266 -0.5,-0.5c0,-0.27734 0.22266,-0.5 0.5,-0.5zM19.5,17c0.27734,0 0.5,0.22266 0.5,0.5c0,0.27734 -0.22266,0.5 -0.5,0.5c-0.27734,0 -0.5,-0.22266 -0.5,-0.5c0,-0.27734 0.22266,-0.5 0.5,-0.5zM23.5,17c0.27734,0 0.5,0.22266 0.5,0.5c0,0.27734 -0.22266,0.5 -0.5,0.5c-0.27734,0 -0.5,-0.22266 -0.5,-0.5c0,-0.27734 0.22266,-0.5 0.5,-0.5zM27.5,17c0.27734,0 0.5,0.22266 0.5,0.5c0,0.27734 -0.22266,0.5 -0.5,0.5c-0.27734,0 -0.5,-0.22266 -0.5,-0.5c0,-0.27734 0.22266,-0.5 0.5,-0.5zM31.5,17c0.27734,0 0.5,0.22266 0.5,0.5c0,0.27734 -0.22266,0.5 -0.5,0.5c-0.27734,0 -0.5,-0.22266 -0.5,-0.5c0,-0.27734 0.22266,-0.5 0.5,-0.5zM5.5,19c0.27734,0 0.5,0.22266 0.5,0.5c0,0.27734 -0.22266,0.5 -0.5,0.5c-0.27734,0 -0.5,-0.22266 -0.5,-0.5c0,-0.27734 0.22266,-0.5 0.5,-0.5zM7.5,19c0.27734,0 0.5,0.22266 0.5,0.5c0,0.27734 -0.22266,0.5 -0.5,0.5c-0.27734,0 -0.5,-0.22266 -0.5,-0.5c0,-0.27734 0.22266,-0.5 0.5,-0.5zM9.5,19c0.27734,0 0.5,0.22266 0.5,0.5c0,0.27734 -0.22266,0.5 -0.5,0.5c-0.27734,0 -0.5,-0.22266 -0.5,-0.5c0,-0.27734 0.22266,-0.5 0.5,-0.5zM11.5,19c0.27734,0 0.5,0.22266 0.5,0.5c0,0.27734 -0.22266,0.5 -0.5,0.5c-0.27734,0 -0.5,-0.22266 -0.5,-0.5c0,-0.27734 0.22266,-0.5 0.5,-0.5zM13.5,19c0.27734,0 0.5,0.22266 0.5,0.5c0,0.27734 -0.22266,0.5 -0.5,0.5c-0.27734,0 -0.5,-0.22266 -0.5,-0.5c0,-0.27734 0.22266,-0.5 0.5,-0.5zM15.5,19c0.27734,0 0.5,0.22266 0.5,0.5c0,0.27734 -0.22266,0.5 -0.5,0.5c-0.27734,0 -0.5,-0.22266 -0.5,-0.5c0,-0.27734 0.22266,-0.5 0.5,-0.5zM17.5,19c0.27734,0 0.5,0.22266 0.5,0.5c0,0.27734 -0.22266,0.5 -0.5,0.5c-0.27734,0 -0.5,-0.22266 -0.5,-0.5c0,-0.27734 0.22266,-0.5 0.5,-0.5zM19.5,19c0.27734,0 0.5,0.22266 0.5,0.5c0,0.27734 -0.22266,0.5 -0.5,0.5c-0.27734,0 -0.5,-0.22266 -0.5,-0.5c0,-0.27734 0.22266,-0.5 0.5,-0.5zM21.5,19c0.27734,0 0.5,0.22266 0.5,0.5c0,0.27734 -0.22266,0.5 -0.5,0.5c-0.27734,0 -0.5,-0.22266 -0.5,-0.5c0,-0.27734 0.22266,-0.5 0.5,-0.5zM23.5,19c0.27734,0 0.5,0.22266 0.5,0.5c0,0.27734 -0.22266,0.5 -0.5,0.5c-0.27734,0 -0.5,-0.22266 -0.5,-0.5c0,-0.27734 0.22266,-0.5 0.5,-0.5zM25.5,19c0.27734,0 0.5,0.22266 0.5,0.5c0,0.27734 -0.22266,0.5 -0.5,0.5c-0.27734,0 -0.5,-0.22266 -0.5,-0.5c0,-0.27734 0.22266,-0.5 0.5,-0.5zM27.5,19c0.27734,0 0.5,0.22266 0.5,0.5c0,0.27734 -0.22266,0.5 -0.5,0.5c-0.27734,0 -0.5,-0.22266 -0.5,-0.5c0,-0.27734 0.22266,-0.5 0.5,-0.5zM29.5,19c0.27734,0 0.5,0.22266 0.5,0.5c0,0.27734 -0.22266,0.5 -0.5,0.5c-0.27734,0 -0.5,-0.22266 -0.5,-0.5c0,-0.27734 0.22266,-0.5 0.5,-0.5zM31.5,19c0.27734,0 0.5,0.22266 0.5,0.5c0,0.27734 -0.22266,0.5 -0.5,0.5c-0.27734,0 -0.5,-0.22266 -0.5,-0.5c0,-0.27734 0.22266,-0.5 0.5,-0.5zM7.5,21c0.27734,0 0.5,0.22266 0.5,0.5c0,0.27734 -0.22266,0.5 -0.5,0.5c-0.27734,0 -0.5,-0.22266 -0.5,-0.5c0,-0.27734 0.22266,-0.5 0.5,-0.5zM11.5,21c0.27734,0 0.5,0.22266 0.5,0.5c0,0.27734 -0.22266,0.5 -0.5,0.5c-0.27734,0 -0.5,-0.22266 -0.5,-0.5c0,-0.27734 0.22266,-0.5 0.5,-0.5zM15.5,21c0.27734,0 0.5,0.22266 0.5,0.5c0,0.27734 -0.22266,0.5 -0.5,0.5c-0.27734,0 -0.5,-0.22266 -0.5,-0.5c0,-0.27734 0.22266,-0.5 0.5,-0.5zM19.5,21c0.27734,0 0.5,0.22266 0.5,0.5c0,0.27734 -0.22266,0.5 -0.5,0.5c-0.27734,0 -0.5,-0.22266 -0.5,-0.5c0,-0.27734 0.22266,-0.5 0.5,-0.5zM23.5,21c0.27734,0 0.5,0.22266 0.5,0.5c0,0.27734 -0.22266,0.5 -0.5,0.5c-0.27734,0 -0.5,-0.22266 -0.5,-0.5c0,-0.27734 0.22266,-0.5 0.5,-0.5zM27.5,21c0.27734,0 0.5,0.22266 0.5,0.5c0,0.27734 -0.22266,0.5 -0.5,0.5c-0.27734,0 -0.5,-0.22266 -0.5,-0.5c0,-0.27734 0.22266,-0.5 0.5,-0.5zM5.5,23c0.27734,0 0.5,0.22266 0.5,0.5c0,0.27734 -0.22266,0.5 -0.5,0.5c-0.27734,0 -0.5,-0.22266 -0.5,-0.5c0,-0.27734 0.22266,-0.5 0.5,-0.5zM7.5,23c0.27734,0 0.5,0.22266 0.5,0.5c0,0.27734 -0.22266,0.5 -0.5,0.5c-0.27734,0 -0.5,-0.22266 -0.5,-0.5c0,-0.27734 0.22266,-0.5 0.5,-0.5zM9.5,23c0.27734,0 0.5,0.22266 0.5,0.5c0,0.27734 -0.22266,0.5 -0.5,0.5c-0.27734,0 -0.5,-0.22266 -0.5,-0.5c0,-0.27734 0.22266,-0.5 0.5,-0.5zM11.5,23c0.27734,0 0.5,0.22266 0.5,0.5c0,0.27734 -0.22266,0.5 -0.5,0.5c-0.27734,0 -0.5,-0.22266 -0.5,-0.5c0,-0.27734 0.22266,-0.5 0.5,-0.5zM13.5,23c0.27734,0 0.5,0.22266 0.5,0.5c0,0.27734 -0.22266,0.5 -0.5,0.5c-0.27734,0 -0.5,-0.22266 -0.5,-0.5c0,-0.27734 0.22266,-0.5 0.5,-0.5zM15.5,23c0.27734,0 0.5,0.22266 0.5,0.5c0,0.27734 -0.22266,0.5 -0.5,0.5c-0.27734,0 -0.5,-0.22266 -0.5,-0.5c0,-0.27734 0.22266,-0.5 0.5,-0.5zM17.5,23c0.27734,0 0.5,0.22266 0.5,0.5c0,0.27734 -0.22266,0.5 -0.5,0.5c-0.27734,0 -0.5,-0.22266 -0.5,-0.5c0,-0.27734 0.22266,-0.5 0.5,-0.5zM19.5,23c0.27734,0 0.5,0.22266 0.5,0.5c0,0.27734 -0.22266,0.5 -0.5,0.5c-0.27734,0 -0.5,-0.22266 -0.5,-0.5c0,-0.27734 0.22266,-0.5 0.5,-0.5zM21.5,23c0.27734,0 0.5,0.22266 0.5,0.5c0,0.27734 -0.22266,0.5 -0.5,0.5c-0.27734,0 -0.5,-0.22266 -0.5,-0.5c0,-0.27734 0.22266,-0.5 0.5,-0.5zM23.5,23c0.27734,0 0.5,0.22266 0.5,0.5c0,0.27734 -0.22266,0.5 -0.5,0.5c-0.27734,0 -0.5,-0.22266 -0.5,-0.5c0,-0.27734 0.22266,-0.5 0.5,-0.5zM25.5,23c0.27734,0 0.5,0.22266 0.5,0.5c0,0.27734 -0.22266,0.5 -0.5,0.5c-0.27734,0 -0.5,-0.22266 -0.5,-0.5c0,-0.27734 0.22266,-0.5 0.5,-0.5zM27.5,23c0.27734,0 0.5,0.22266 0.5,0.5c0,0.27734 -0.22266,0.5 -0.5,0.5c-0.27734,0 -0.5,-0.22266 -0.5,-0.5c0,-0.27734 0.22266,-0.5 0.5,-0.5zM7.5,25c0.27734,0 0.5,0.22266 0.5,0.5c0,0.27734 -0.22266,0.5 -0.5,0.5c-0.27734,0 -0.5,-0.22266 -0.5,-0.5c0,-0.27734 0.22266,-0.5 0.5,-0.5zM11.5,25c0.27734,0 0.5,0.22266 0.5,0.5c0,0.27734 -0.22266,0.5 -0.5,0.5c-0.27734,0 -0.5,-0.22266 -0.5,-0.5c0,-0.27734 0.22266,-0.5 0.5,-0.5zM15.5,25c0.27734,0 0.5,0.22266 0.5,0.5c0,0.27734 -0.22266,0.5 -0.5,0.5c-0.27734,0 -0.5,-0.22266 -0.5,-0.5c0,-0.27734 0.22266,-0.5 0.5,-0.5zM19.5,25c0.27734,0 0.5,0.22266 0.5,0.5c0,0.27734 -0.22266,0.5 -0.5,0.5c-0.27734,0 -0.5,-0.22266 -0.5,-0.5c0,-0.27734 0.22266,-0.5 0.5,-0.5zM23.5,25c0.27734,0 0.5,0.22266 0.5,0.5c0,0.27734 -0.22266,0.5 -0.5,0.5c-0.27734,0 -0.5,-0.22266 -0.5,-0.5c0,-0.27734 0.22266,-0.5 0.5,-0.5zM5.5,27c0.27734,0 0.5,0.22266 0.5,0.5c0,0.27734 -0.22266,0.5 -0.5,0.5c-0.27734,0 -0.5,-0.22266 -0.5,-0.5c0,-0.27734 0.22266,-0.5 0.5,-0.5zM7.5,27c0.27734,0 0.5,0.22266 0.5,0.5c0,0.27734 -0.22266,0.5 -0.5,0.5c-0.27734,0 -0.5,-0.22266 -0.5,-0.5c0,-0.27734 0.22266,-0.5 0.5,-0.5zM9.5,27c0.27734,0 0.5,0.22266 0.5,0.5c0,0.27734 -0.22266,0.5 -0.5,0.5c-0.27734,0 -0.5,-0.22266 -0.5,-0.5c0,-0.27734 0.22266,-0.5 0.5,-0.5zM11.5,27c0.27734,0 0.5,0.22266 0.5,0.5c0,0.27734 -0.22266,0.5 -0.5,0.5c-0.27734,0 -0.5,-0.22266 -0.5,-0.5c0,-0.27734 0.22266,-0.5 0.5,-0.5zM13.5,27c0.27734,0 0.5,0.22266 0.5,0.5c0,0.27734 -0.22266,0.5 -0.5,0.5c-0.27734,0 -0.5,-0.22266 -0.5,-0.5c0,-0.27734 0.22266,-0.5 0.5,-0.5zM15.5,27c0.27734,0 0.5,0.22266 0.5,0.5c0,0.27734 -0.22266,0.5 -0.5,0.5c-0.27734,0 -0.5,-0.22266 -0.5,-0.5c0,-0.27734 0.22266,-0.5 0.5,-0.5zM17.5,27c0.27734,0 0.5,0.22266 0.5,0.5c0,0.27734 -0.22266,0.5 -0.5,0.5c-0.27734,0 -0.5,-0.22266 -0.5,-0.5c0,-0.27734 0.22266,-0.5 0.5,-0.5zM19.5,27c0.27734,0 0.5,0.22266 0.5,0.5c0,0.27734 -0.22266,0.5 -0.5,0.5c-0.27734,0 -0.5,-0.22266 -0.5,-0.5c0,-0.27734 0.22266,-0.5 0.5,-0.5zM21.5,27c0.27734,0 0.5,0.22266 0.5,0.5c0,0.27734 -0.22266,0.5 -0.5,0.5c-0.27734,0 -0.5,-0.22266 -0.5,-0.5c0,-0.27734 0.22266,-0.5 0.5,-0.5zM23.5,27c0.27734,0 0.5,0.22266 0.5,0.5c0,0.27734 -0.22266,0.5 -0.5,0.5c-0.27734,0 -0.5,-0.22266 -0.5,-0.5c0,-0.27734 0.22266,-0.5 0.5,-0.5zM7.5,29c0.27734,0 0.5,0.22266 0.5,0.5c0,0.27734 -0.22266,0.5 -0.5,0.5c-0.27734,0 -0.5,-0.22266 -0.5,-0.5c0,-0.27734 0.22266,-0.5 0.5,-0.5zM11.5,29c0.27734,0 0.5,0.22266 0.5,0.5c0,0.27734 -0.22266,0.5 -0.5,0.5c-0.27734,0 -0.5,-0.22266 -0.5,-0.5c0,-0.27734 0.22266,-0.5 0.5,-0.5zM15.5,29c0.27734,0 0.5,0.22266 0.5,0.5c0,0.27734 -0.22266,0.5 -0.5,0.5c-0.27734,0 -0.5,-0.22266 -0.5,-0.5c0,-0.27734 0.22266,-0.5 0.5,-0.5zM19.5,29c0.27734,0 0.5,0.22266 0.5,0.5c0,0.27734 -0.22266,0.5 -0.5,0.5c-0.27734,0 -0.5,-0.22266 -0.5,-0.5c0,-0.27734 0.22266,-0.5 0.5,-0.5zM5.5,31c0.27734,0 0.5,0.22266 0.5,0.5c0,0.27734 -0.22266,0.5 -0.5,0.5c-0.27734,0 -0.5,-0.22266 -0.5,-0.5c0,-0.27734 0.22266,-0.5 0.5,-0.5zM7.5,31c0.27734,0 0.5,0.22266 0.5,0.5c0,0.27734 -0.22266,0.5 -0.5,0.5c-0.27734,0 -0.5,-0.22266 -0.5,-0.5c0,-0.27734 0.22266,-0.5 0.5,-0.5zM9.5,31c0.27734,0 0.5,0.22266 0.5,0.5c0,0.27734 -0.22266,0.5 -0.5,0.5c-0.27734,0 -0.5,-0.22266 -0.5,-0.5c0,-0.27734 0.22266,-0.5 0.5,-0.5zM11.5,31c0.27734,0 0.5,0.22266 0.5,0.5c0,0.27734 -0.22266,0.5 -0.5,0.5c-0.27734,0 -0.5,-0.22266 -0.5,-0.5c0,-0.27734 0.22266,-0.5 0.5,-0.5zM13.5,31c0.27734,0 0.5,0.22266 0.5,0.5c0,0.27734 -0.22266,0.5 -0.5,0.5c-0.27734,0 -0.5,-0.22266 -0.5,-0.5c0,-0.27734 0.22266,-0.5 0.5,-0.5zM15.5,31c0.27734,0 0.5,0.22266 0.5,0.5c0,0.27734 -0.22266,0.5 -0.5,0.5c-0.27734,0 -0.5,-0.22266 -0.5,-0.5c0,-0.27734 0.22266,-0.5 0.5,-0.5zM17.5,31c0.27734,0 0.5,0.22266 0.5,0.5c0,0.27734 -0.22266,0.5 -0.5,0.5c-0.27734,0 -0.5,-0.22266 -0.5,-0.5c0,-0.27734 0.22266,-0.5 0.5,-0.5zM19.5,31c0.27734,0 0.5,0.22266 0.5,0.5c0,0.27734 -0.22266,0.5 -0.5,0.5c-0.27734,0 -0.5,-0.22266 -0.5,-0.5c0,-0.27734 0.22266,-0.5 0.5,-0.5zM7.5,33c0.27734,0 0.5,0.22266 0.5,0.5c0,0.27734 -0.22266,0.5 -0.5,0.5c-0.27734,0 -0.5,-0.22266 -0.5,-0.5c0,-0.27734 0.22266,-0.5 0.5,-0.5zM11.5,33c0.27734,0 0.5,0.22266 0.5,0.5c0,0.27734 -0.22266,0.5 -0.5,0.5c-0.27734,0 -0.5,-0.22266 -0.5,-0.5c0,-0.27734 0.22266,-0.5 0.5,-0.5zM15.5,33c0.27734,0 0.5,0.22266 0.5,0.5c0,0.27734 -0.22266,0.5 -0.5,0.5c-0.27734,0 -0.5,-0.22266 -0.5,-0.5c0,-0.27734 0.22266,-0.5 0.5,-0.5zM39,34.90625l-10.09375,10.09375h10.09375zM5.5,35c0.27734,0 0.5,0.22266 0.5,0.5c0,0.27734 -0.22266,0.5 -0.5,0.5c-0.27734,0 -0.5,-0.22266 -0.5,-0.5c0,-0.27734 0.22266,-0.5 0.5,-0.5zM7.5,35c0.27734,0 0.5,0.22266 0.5,0.5c0,0.27734 -0.22266,0.5 -0.5,0.5c-0.27734,0 -0.5,-0.22266 -0.5,-0.5c0,-0.27734 0.22266,-0.5 0.5,-0.5zM9.5,35c0.27734,0 0.5,0.22266 0.5,0.5c0,0.27734 -0.22266,0.5 -0.5,0.5c-0.27734,0 -0.5,-0.22266 -0.5,-0.5c0,-0.27734 0.22266,-0.5 0.5,-0.5zM11.5,35c0.27734,0 0.5,0.22266 0.5,0.5c0,0.27734 -0.22266,0.5 -0.5,0.5c-0.27734,0 -0.5,-0.22266 -0.5,-0.5c0,-0.27734 0.22266,-0.5 0.5,-0.5zM13.5,35c0.27734,0 0.5,0.22266 0.5,0.5c0,0.27734 -0.22266,0.5 -0.5,0.5c-0.27734,0 -0.5,-0.22266 -0.5,-0.5c0,-0.27734 0.22266,-0.5 0.5,-0.5zM15.5,35c0.27734,0 0.5,0.22266 0.5,0.5c0,0.27734 -0.22266,0.5 -0.5,0.5c-0.27734,0 -0.5,-0.22266 -0.5,-0.5c0,-0.27734 0.22266,-0.5 0.5,-0.5zM7.5,37c0.27734,0 0.5,0.22266 0.5,0.5c0,0.27734 -0.22266,0.5 -0.5,0.5c-0.27734,0 -0.5,-0.22266 -0.5,-0.5c0,-0.27734 0.22266,-0.5 0.5,-0.5zM11.5,37c0.27734,0 0.5,0.22266 0.5,0.5c0,0.27734 -0.22266,0.5 -0.5,0.5c-0.27734,0 -0.5,-0.22266 -0.5,-0.5c0,-0.27734 0.22266,-0.5 0.5,-0.5zM5.5,39c0.27734,0 0.5,0.22266 0.5,0.5c0,0.27734 -0.22266,0.5 -0.5,0.5c-0.27734,0 -0.5,-0.22266 -0.5,-0.5c0,-0.27734 0.22266,-0.5 0.5,-0.5zM7.5,39c0.27734,0 0.5,0.22266 0.5,0.5c0,0.27734 -0.22266,0.5 -0.5,0.5c-0.27734,0 -0.5,-0.22266 -0.5,-0.5c0,-0.27734 0.22266,-0.5 0.5,-0.5zM9.5,39c0.27734,0 0.5,0.22266 0.5,0.5c0,0.27734 -0.22266,0.5 -0.5,0.5c-0.27734,0 -0.5,-0.22266 -0.5,-0.5c0,-0.27734 0.22266,-0.5 0.5,-0.5zM11.5,39c0.27734,0 0.5,0.22266 0.5,0.5c0,0.27734 -0.22266,0.5 -0.5,0.5c-0.27734,0 -0.5,-0.22266 -0.5,-0.5c0,-0.27734 0.22266,-0.5 0.5,-0.5zM35.5,39c0.27734,0 0.5,0.22266 0.5,0.5c0,0.27734 -0.22266,0.5 -0.5,0.5c-0.27734,0 -0.5,-0.22266 -0.5,-0.5c0,-0.27734 0.22266,-0.5 0.5,-0.5zM7.5,41c0.27734,0 0.5,0.22266 0.5,0.5c0,0.27734 -0.22266,0.5 -0.5,0.5c-0.27734,0 -0.5,-0.22266 -0.5,-0.5c0,-0.27734 0.22266,-0.5 0.5,-0.5zM11.5,41c0.27734,0 0.5,0.22266 0.5,0.5c0,0.27734 -0.22266,0.5 -0.5,0.5c-0.27734,0 -0.5,-0.22266 -0.5,-0.5c0,-0.27734 0.22266,-0.5 0.5,-0.5zM35.5,41c0.27734,0 0.5,0.22266 0.5,0.5c0,0.27734 -0.22266,0.5 -0.5,0.5c-0.27734,0 -0.5,-0.22266 -0.5,-0.5c0,-0.27734 0.22266,-0.5 0.5,-0.5z"></path></g></g></g></svg>