<svg width="24" height="24" viewBox="0 0 24 24" fill="none" xmlns="http://www.w3.org/2000/svg">
<g id="icons8-university">
<g id="Group">
<g id="Group_2">
<g id="Group_3">
<path id="Vector" d="M7.0365 8.41351H16.9365V17.8635H7.0365V8.41351Z" fill="#510065"/>
<path id="Vector_2" d="M5.70007 9.75003H7.05007V16.95H5.70007V9.75003ZM10.6501 9.75003L9.30007 9.75363L9.30637 16.9536L10.6501 16.9518V9.75003ZM14.7001 9.75003L13.3501 9.74823L13.3564 16.9482L14.7001 16.95V9.75003ZM16.9501 9.75003H18.3001V16.95H16.9501V9.75003Z" fill="#D87CEE"/>
<path id="Vector_3" d="M19.2 8.84285C19.2 9.09035 18.9998 9.2996 18.75 9.30005H5.25185C5.00345 9.3005 4.80185 9.10835 4.8014 8.8604L4.80005 7.51535C4.7996 7.2674 5.00075 7.0667 5.24915 7.0667L18.7482 7.05005C18.9971 7.0496 19.1973 7.2503 19.1982 7.4978L19.2 8.84285Z" fill="#7D1098"/>
<g id="Group_4">
<path id="Vector_4" d="M20.1 20.1H3.90992L3.90002 18.75H20.1V20.1ZM7.49687 9.30542L7.49732 9.75542C7.49777 10.0043 7.29662 10.1996 7.04777 10.2H5.69777C5.44937 10.2 5.25047 10.007 5.25002 9.75857V9.30857L7.49687 9.30542ZM11.0996 9.30002L11.1 9.74732C11.1005 9.99617 10.8993 10.1996 10.6505 10.2H9.30047C9.05207 10.2 8.85047 9.99932 8.85002 9.75047V9.30002H11.0996ZM15.1464 9.30002L15.1473 9.74597C15.1473 9.99482 14.9462 10.2 14.6978 10.2H13.3478C13.0994 10.2005 12.9 9.99797 12.9 9.74912V9.30002H15.1464ZM18.75 9.30002V9.74147C18.75 9.99032 18.5462 10.2 18.2978 10.2H16.9478C16.6994 10.2005 16.5 9.99302 16.5 9.74417V9.30002H18.75ZM7.50002 17.4054V16.9554C7.49957 16.7066 7.30382 16.4996 7.05542 16.5H5.70542C5.45702 16.5 5.24957 16.7097 5.25002 16.9586V17.4086L7.50002 17.4054ZM11.1 17.4V16.9509C11.0996 16.7021 10.9038 16.5014 10.6554 16.5018L9.30542 16.5036C9.05702 16.5036 8.85542 16.7052 8.85587 16.9541L8.85677 17.4H11.1ZM15.15 17.4V16.946C15.1496 16.6971 14.948 16.5 14.6991 16.5H13.3491C13.1007 16.5005 12.8996 16.7003 12.9 16.9491L12.9005 17.4H15.15ZM18.75 17.4L18.7496 16.9415C18.7491 16.6931 18.5475 16.5 18.2987 16.5H16.9487C16.7003 16.5005 16.4996 16.6958 16.5 16.9442V17.4H18.75ZM20.1 7.50002L11.9901 3.90002L3.90002 7.50947V8.40002H20.1V7.50002Z" fill="#D87CEE"/>
</g>
<g id="Group_5">
<path id="Vector_5" d="M4.80762 17.4H19.1991V18.75H4.80762V17.4ZM6.14457 7.50005H17.8446L11.991 4.80005L6.14457 7.50005Z" fill="#8B24A4"/>
</g>
</g>
</g>
</g>
</g>
</svg>
